<svg width="40" height="19" viewBox="0 0 40 19" fill="none" xmlns="http://www.w3.org/2000/svg">
<path d="M5.45211 15.3738L10.3214 7.37383L0 0L5.45211 15.3738Z" fill="black"/>
<path d="M5.14394 14.4055L6.70443 18.8944C11.0231 18.6921 15.4124 18.5877 19.8723 18.5813C24.5008 18.5813 29.0716 18.6969 33.5604 18.9185L34.9572 14.4296C30.0493 14.1117 25.0114 13.948 19.8723 13.948C14.8537 13.948 9.93621 14.1117 5.14394 14.4055Z" fill="white"/>
<path d="M29.6689 7.41252L34.5238 15.6677L40 0.0435057L29.6689 7.41252Z" fill="white"/>
<path d="M16.8766 3.06309L19.9157 6.11184L22.9596 3.06309L19.9157 0.0239744L16.8766 3.06309Z" fill="white"/>
<path d="M12.6093 7.3979L15.6484 10.4418L18.6972 7.3979L15.6484 4.35879L12.6093 7.3979Z" fill="white"/>
<path d="M24.3377 4.36277L21.2951 7.40957L24.3419 10.4521L27.3844 7.40531L24.3377 4.36277Z" fill="black"/>
</svg>
