<svg width="238" height="42" viewBox="0 0 238 42" fill="none" xmlns="http://www.w3.org/2000/svg">
  <g clip-path="url(#clip0_1760_3102)">
    <path d="M202.684 7.93129C202.684 7.93129 203.402 10.6351 204.24 12.4377C205.677 15.442 207.113 17.0042 207.113 17.0042C207.113 17.0042 218.786 6.72957 223.275 4.62657C227.825 2.52356 229.201 3.12442 230.219 4.927C230.518 5.40768 230.458 6.00854 230.458 6.00854C230.458 6.00854 224.892 8.83257 219.923 12.7382C215.314 16.4034 211.184 20.9098 211.184 20.9098C211.184 20.9098 214.057 24.3347 219.444 28.7811C224.832 33.2274 230.578 35.8712 230.578 35.8712C230.578 35.8712 230.518 36.7124 230.159 37.4334C229.98 37.854 229.68 38.2145 229.381 38.3948C228.363 38.9957 226.208 38.3347 225.011 37.9742C222.497 37.133 215.913 32.6866 216.152 32.7467L206.934 25.236C206.934 25.236 204.48 27.5794 203.103 31.4849C202.624 32.8669 202.504 34.3691 202.504 34.3691C202.504 34.3691 200.289 33.8884 199.811 32.5665C197.955 27.8798 204.001 21.1502 204.001 21.1502C204.001 21.1502 202.025 18.8068 200.649 16.163C199.451 13.8798 198.733 11.2961 199.631 9.97421C200.828 8.05146 202.684 7.93129 202.684 7.93129Z" fill="url(#paint0_linear_1760_3102)"/>
    <path d="M232.492 26.3784C224.83 19.7689 220.041 23.0736 216.33 27.3998C213.038 31.1852 205.615 35.7518 201.904 34.1294C195.499 31.3054 203.999 21.1509 203.999 21.1509C203.999 21.1509 196.816 12.3183 200.168 9.31398C203.52 6.30969 209.805 8.17235 214.355 12.799C218.904 17.4256 220.281 20.4899 225.668 19.4685C231.055 18.447 233.929 14.4814 235.126 12.4985C236.323 10.4556 239.077 5.10797 237.4 2.16377C235.784 -0.900611 228.422 -0.600182 223.872 2.52428C219.323 5.64875 215.492 8.83329 215.492 8.83329L216.21 9.43415C216.21 9.43415 225.848 1.50282 229.2 3.66591C232.552 5.829 229.2 14.0608 226.805 15.2024C224.411 16.344 222.077 15.0221 219.503 12.5586C216.869 10.035 212.319 5.64875 207.95 3.54574C203.64 1.44274 198.731 1.26248 196.876 2.64445C195.02 4.08651 195.439 8.59295 198.612 13.7603C201.784 18.9277 203.341 21.0307 203.341 21.0307C203.341 21.0307 197.953 28.1809 196.576 32.0865C195.2 35.9921 195.439 37.9749 196.517 38.8762C197.594 39.8376 201.006 41.1595 205.136 39.417C209.267 37.6144 215.612 33.0479 215.612 33.0479C215.612 33.0479 223.094 39.5372 226.626 40.7389C230.157 41.9406 234.647 42.7217 236.742 40.7389C238.897 38.756 237.46 30.5844 232.492 26.3784ZM229.26 38.3955C225.429 39.7174 216.39 32.6273 216.39 32.6273C216.39 32.6273 221.657 26.3183 224.591 26.1981C227.524 26.0178 229.858 29.9234 230.397 32.8676C230.876 35.8118 230.576 37.9749 229.26 38.3955Z" fill="white"/>
    <path d="M0 30.6446V14.3013H1.85563V30.6446H0Z" fill="white"/>
    <path d="M7.78174 30.6446V14.3013H9.51765L19.8134 27.4601V14.3013H21.6092V30.6446H20.1127L9.57751 17.2455V30.6446H7.78174Z" fill="white"/>
    <path d="M31.6652 30.6446V15.9837H26.1582V14.3013H38.9681V15.9837H33.461V30.6446H31.6652Z" fill="white"/>
    <path d="M43.6362 30.6446V14.3013H55.6679V15.9837H45.4919V21.5717H54.4109V23.2541H45.4919V28.9622H55.5482V30.6446H43.6362Z" fill="white"/>
    <path d="M60.4575 30.6446V14.3013H62.3132V28.9622H71.5315V30.6446H60.4575Z" fill="white"/>
    <path d="M76.021 30.6446V14.3013H77.8766V28.9622H87.0949V30.6446H76.021Z" fill="white"/>
    <path d="M91.8232 30.6446V14.3013H93.6789V30.6446H91.8232Z" fill="white"/>
    <path d="M107.207 30.9452C104.693 30.9452 102.718 30.1641 101.161 28.5417C99.6649 26.9194 98.8867 24.9366 98.8867 22.5332V22.4731C98.8867 20.1898 99.6649 18.1469 101.221 16.5246C102.778 14.8422 104.693 14.001 107.087 14.001C108.404 14.001 109.542 14.1812 110.44 14.5418C111.397 14.9023 112.295 15.443 113.133 16.1641L111.936 17.546C110.499 16.2842 108.823 15.6834 106.968 15.6834C105.172 15.6834 103.735 16.3443 102.538 17.6662C101.341 18.9881 100.742 20.5503 100.742 22.413V22.4731C100.742 24.4559 101.341 26.0782 102.478 27.34C103.616 28.6018 105.232 29.2628 107.207 29.2628C109.003 29.2628 110.559 28.722 111.936 27.6405V23.5546H106.968V21.8722H113.732V28.4216C111.876 30.104 109.661 30.9452 107.207 30.9452Z" fill="white"/>
    <path d="M119.059 30.6446V14.3013H130.851V15.9837H120.915V21.5717H129.834V23.2541H120.915V28.9622H130.971V30.6446H119.059Z" fill="white"/>
    <path d="M135.819 30.6446V14.3013H137.555L147.851 27.4V14.3013H149.647V30.6446H148.15L137.615 17.1854V30.6446H135.819Z" fill="white"/>
    <path d="M162.876 30.9452C160.541 30.9452 158.626 30.104 157.01 28.4817C155.453 26.8594 154.675 24.8765 154.675 22.4731V22.413C154.675 20.0697 155.453 18.0268 157.01 16.4044C158.566 14.7821 160.542 13.9409 162.936 13.9409C164.313 13.9409 165.51 14.1813 166.468 14.6019C167.425 15.0225 168.383 15.6834 169.281 16.5246L168.024 17.9066C166.468 16.4044 164.732 15.6834 162.876 15.6834C161.08 15.6834 159.584 16.3444 158.387 17.6062C157.189 18.928 156.591 20.4903 156.591 22.3529V22.413C156.591 24.3358 157.189 25.898 158.387 27.2199C159.584 28.5418 161.08 29.2027 162.876 29.2027C163.953 29.2027 164.851 29.0225 165.689 28.6019C166.527 28.2413 167.306 27.6405 168.144 26.7993L169.341 28.001C168.383 28.9624 167.425 29.6834 166.408 30.1641C165.51 30.7049 164.313 30.9452 162.876 30.9452Z" fill="white"/>
    <path d="M173.83 30.6446V14.3013H185.622V15.9837H175.686V21.5717H184.605V23.2541H175.686V28.9622H185.742V30.6446H173.83Z" fill="white"/>
  </g>
  <defs>
    <linearGradient id="paint0_linear_1760_3102" x1="199.295" y1="20.9531" x2="230.671" y2="20.9531" gradientUnits="userSpaceOnUse">
      <stop offset="0.0611337" stop-color="#A8A8A7"/>
      <stop offset="0.9986" stop-color="#1D1D1B"/>
    </linearGradient>
    <clipPath id="clip0_1760_3102">
      <rect width="238" height="42" fill="white"/>
    </clipPath>
  </defs>
</svg>
