<svg width="300" height="17" viewBox="0 0 300 17" fill="none" xmlns="http://www.w3.org/2000/svg">
<path d="M1.82529 15.8522H0V0.335938H8.58959C10.5178 0.335938 13.4839 1.10327 13.4839 4.79719C13.4839 8.08513 11.3275 9.22721 8.58959 9.22721H1.82529V15.8522ZM8.58959 7.37579C10.3299 7.37579 11.6586 6.84044 11.6586 4.77042C11.6586 2.59779 10.1643 2.14274 8.58959 2.14274H1.82529V7.38917L8.58959 7.37579Z" fill="white"/>
<path d="M38.5419 15.8522H36.5108L34.001 10.5344H26.512L24.0604 15.8522H22.0293L29.4333 0.335938H31.2631L38.5419 15.8522ZM30.346 2.54872L27.4246 8.71416H33.1689L30.346 2.54872Z" fill="white"/>
<path d="M61.8127 15.8522H50.2168V0.335938H52.0421V14.032H61.8127V15.8522Z" fill="white"/>
<path d="M87.9941 15.8522H85.9586L83.4264 10.5344H75.9597L73.5126 15.8522H71.4771L78.8856 0.335938H80.7109L87.9941 15.8522ZM79.7982 2.54872L76.8724 8.71416H82.6212L79.7982 2.54872Z" fill="white"/>
<path d="M113.753 13.0945C112.859 13.9243 110.85 16.1772 106.287 16.1772C102.077 16.1772 97.6567 13.4469 97.6567 8.08896C97.6567 2.731 102.077 0.000712477 106.027 0.000712477C107.422 -0.0156198 108.806 0.248993 110.096 0.778699C111.386 1.30841 112.555 2.0923 113.534 3.08344L112.228 4.34597C111.378 3.61879 109.221 1.8209 106.067 1.8209C102.086 1.8209 99.491 4.86348 99.491 8.06665C99.491 11.2698 102.086 14.3749 106.376 14.3749C107.53 14.3961 108.675 14.171 109.734 13.7147C110.794 13.2585 111.743 12.5815 112.519 11.7293L113.753 13.0945Z" fill="white"/>
<path d="M139.58 15.8522H126.32V0.335938H139.102V2.15613H128.15V6.89397H133.917V8.71416H128.15V14.032H139.58V15.8522Z" fill="white"/>
<path d="M213.398 15.8522H200.147V0.335938H212.924V2.15613H201.972V6.89397H207.739V8.71416H201.972V14.032H213.398V15.8522Z" fill="white"/>
<path d="M236.885 15.8522H225.285V0.335938H227.114V14.032H236.885V15.8522Z" fill="white"/>
<path d="M249.635 15.8522H247.81V0.335938H249.635V15.8522Z" fill="white"/>
<path d="M269.032 15.8522H267.207V2.15613H261.521V0.335938H274.719V2.15613H269.032V15.8522Z" fill="white"/>
<path d="M300 15.8522H286.767V0.335938H299.548V2.15613H288.592V6.89397H294.372V8.71416H288.592V14.032H300V15.8522Z" fill="white"/>
<path d="M175.46 8.30355L178.202 12.9343C175.166 12.7499 172.061 12.6577 168.888 12.6577C165.756 12.6577 162.656 12.7559 159.636 12.9254L162.491 8.25894L155.574 3.35156L159.225 13.6124L160.057 15.9858C162.947 15.849 165.888 15.7791 168.879 15.7761C171.984 15.7761 175.048 15.852 178.055 15.9992L178.95 13.0994L182.363 3.38279L175.46 8.30355Z" fill="white"/>
<path d="M170.96 5.3898L168.92 3.35547L166.88 5.3898L168.92 7.42859L170.96 5.3898Z" fill="white"/>
<path d="M168.106 8.29995L166.061 6.26562L164.025 8.29995L166.061 10.3343L168.106 8.29995Z" fill="white"/>
<path d="M171.877 6.27353L169.837 8.30859L171.878 10.3429L173.918 8.30788L171.877 6.27353Z" fill="white"/>
</svg>
